<?xml version="1.0" standalone="no"?>
<!DOCTYPE svg PUBLIC "-//W3C//DTD SVG 20010904//EN"
 "http://www.w3.org/TR/2001/REC-SVG-20010904/DTD/svg10.dtd">
<svg version="1.0" xmlns="http://www.w3.org/2000/svg"
 width="230.000000pt" height="230.000000pt" viewBox="0 0 230.000000 230.000000"
 preserveAspectRatio="xMidYMid meet">
<metadata>
Created by potrace 1.14, written by Peter Selinger 2001-2017
</metadata>
<g transform="translate(0.000000,230.000000) scale(0.100000,-0.100000)"
fill="#000000" stroke="none">
<path d="M1617 1903 c-2 -1 -23 -5 -48 -8 -218 -22 -570 -224 -775 -443 l-50
-55 -34 18 c-85 44 -235 -6 -358 -121 -178 -165 -202 -360 -49 -392 39 -8 60
-6 129 13 27 7 28 6 22 -26 -4 -19 -17 -43 -31 -54 -22 -19 -73 -139 -73 -172
0 -12 11 -14 50 -11 27 3 50 1 50 -4 0 -4 9 -28 20 -52 38 -79 109 -134 210
-161 44 -11 202 -12 248 -1 12 3 31 8 42 11 11 3 28 7 38 9 137 32 374 164
536 298 71 60 166 154 166 165 0 4 8 13 18 19 26 17 84 102 73 108 -5 4 -12
-2 -16 -13 -3 -11 -13 -22 -22 -25 -14 -6 -14 -4 -2 11 41 54 59 74 59 66 0
-5 -5 -14 -12 -21 -9 -9 -8 -12 5 -12 15 0 22 11 18 33 0 4 6 7 14 7 8 0 15 5
15 10 0 6 8 19 18 30 25 27 98 175 123 250 30 88 37 237 15 311 -27 96 -114
174 -221 200 -47 11 -171 20 -178 12z m-67 -345 c33 -53 24 -160 -26 -327 -26
-87 -129 -256 -192 -316 -75 -71 -122 -83 -160 -42 -18 19 -23 38 -26 95 l-3
71 54 11 c71 15 164 79 226 155 49 62 57 85 33 104 -11 10 -22 5 -53 -21 l-38
-33 34 39 c61 72 76 131 40 167 -16 16 -30 20 -60 17 -21 -2 -39 -1 -39 2 0 9
82 86 105 98 11 6 35 12 53 12 26 0 36 -6 52 -32z m-966 -313 c-6 -66 -81
-185 -106 -169 -24 15 24 149 69 197 31 31 42 22 37 -28z m766 0 c0 -6 -97
-55 -110 -55 -27 0 -4 17 48 36 31 12 58 22 60 23 1 0 2 -1 2 -4z m400 -259
c0 -2 -7 -7 -16 -10 -8 -3 -12 -2 -9 4 6 10 25 14 25 6z"/>
</g>
</svg>
